#!OML:ASF I:\Actors\actors\Patient Classification 2\Patient 1\Session 1\actor1.ASF
:FULLY-SPECIFIED
:DEGREES
675
root -0.820253 18.7863 6.00954 2.54453 -3.7262 -1.98556
lowerback 14.0273 -1.08264 4.71959
upperback -0.555655 -0.247722 4.75787
thorax -8.50833 -0.211733 2.49267
lowerneck 0.901135 -5.08581 0.707634
upperneck -2.74366 -7.0709 -8.56478
head -1.38969 -3.44116 -2.73466
rclavicle 2.5842e-015 -4.77083e-014
rhumerus 29.721 12.7576 -58.2762
rradius 131.722
rwrist 0.442329
rhand -35.3328 -40.4528
rfingers 7.12502
rthumb -8.46597 -70.2631
lclavicle 2.5842e-015 -4.77083e-014
lhumerus -52.4352 -22.5068 106.22
lradius 111.738
lwrist -4.65141
lhand -12.5918 -35.5114
lfingers 7.12502
lthumb 13.4867 -5.96804
rfemur 0 0 0
rtibia 0
rfoot 0 0
rtoes 0
lfemur -6.76369 -0.00190139 -14.6465
ltibia 24.2283
lfoot -22.2119 12.2442
ltoes -55.5733
676
root -0.820861 18.7859 6.01183 2.56803 -3.95983 -1.96162
lowerback 14.0097 -1.14724 4.67345
upperback -0.530252 -0.341317 4.80027
thorax -8.4694 -0.253614 2.58309
lowerneck 0.908853 -5.10382 0.588685
upperneck -2.76472 -7.09686 -8.48975
head -1.39056 -3.45329 -2.68723
rclavicle -2.38542e-015 -7.95139e-015
rhumerus 29.7872 12.7538 -58.2137
rradius 131.724
rwrist 0.451409
rhand -35.6061 -40.6389
rfingers 7.12502
rthumb -8.72973 -70.4384
lclavicle -2.38542e-015 -7.95139e-015
lhumerus -52.4109 -22.4633 106.259
lradius 111.722
lwrist -4.62601
lhand -12.5363 -35.454
lfingers 7.12502
lthumb 13.5402 -5.9142
rfemur 0 0 0
rtibia 0
rfoot 0 0
rtoes 0
lfemur -6.7152 0.110298 -14.6837
ltibia 24.1909
lfoot -22.2662 12.3396
ltoes -55.5321
677
root -0.821816 18.7849 6.01412 2.57083 -4.14973 -1.96855
lowerback 14.0264 -1.22504 4.69616
upperback -0.501514 -0.440956 4.81097
thorax -8.44687 -0.302283 2.60257
lowerneck 0.888855 -5.1488 0.586317
upperneck -2.79716 -7.15715 -8.41488
head -1.39685 -3.48406 -2.66066
rclavicle -2.5842e-014 -4.6118e-014
rhumerus 29.7749 12.6932 -58.2251
rradius 131.758
rwrist 0.459582
rhand -35.822 -40.811
rfingers 7.12502
rthumb -8.93807 -70.6016
lclavicle -2.5842e-014 -4.6118e-014
lhumerus -52.4059 -22.5027 106.255
lradius 111.703
lwrist -4.53804
lhand -12.4212 -35.4251
lfingers 7.12502
lthumb 13.6511 -5.89279
rfemur 0 0 0
rtibia 0
rfoot 0 0
rtoes 0
lfemur -6.65117 0.166881 -14.681
ltibia 24.1555
lfoot -22.3462 12.4244
ltoes -55.5036
678
root -0.824495 18.7839 6.01664 2.57486 -4.32975 -1.964
lowerback 14.0131 -1.28876 4.70882
upperback -0.449158 -0.529538 4.79926
thorax -8.3816 -0.345383 2.5992
lowerneck 0.779254 -5.21022 0.646643
upperneck -2.81696 -7.23645 -8.35862
head -1.38788 -3.52722 -2.6536
rclavicle 7.15625e-015 -1.59028e-014
rhumerus 29.7446 12.5475 -58.281
rradius 131.769
rwrist 0.54477
rhand -35.9471 -40.902
rfingers 7.12502
rthumb -9.05876 -70.6875
lclavicle 7.15625e-015 -1.59028e-014
lhumerus -52.3497 -22.6033 106.205
lradius 111.679
lwrist -4.47614
lhand -12.3556 -35.4837
lfingers 7.12502
lthumb 13.7143 -5.95564
rfemur 0 0 0
rtibia 0
rfoot 0 0
rtoes 0
lfemur -6.59115 0.217722 -14.6872
ltibia 24.1218
lfoot -22.4215 12.4952
ltoes -55.4746
679
root -0.82601 18.7841 6.01867 2.60985 -4.51422 -1.93375
lowerback 14.4207 -1.35884 4.87438
upperback -0.733158 -0.547531 4.71846
thorax -8.92715 -0.367942 2.44718
lowerneck 0.842386 -5.2765 0.549836
upperneck -2.54802 -7.30492 -8.28559
head -1.30829 -3.56721 -2.61105
rclavicle -1.47101e-014 7.95139e-015
rhumerus 29.1819 12.615 -58.4285
rradius 131.858
rwrist 0.701305
rhand -36.044 -41.0318
rfingers 7.12502
rthumb -9.1523 -70.8132
lclavicle -1.47101e-014 7.95139e-015
lhumerus -52.9188 -22.6124 106.398
lradius 111.703
lwrist -4.47789
lhand -12.4432 -35.6487
lfingers 7.12502
lthumb 13.6299 -6.11493
rfemur 0 0 0
rtibia 0
rfoot 0 0
rtoes 0
lfemur -6.58184 0.303859 -14.7342
ltibia 24.0957
lfoot -22.4091 12.6106
ltoes -55.7441
680
root -0.825654 18.784 6.02163 2.65046 -4.71155 -1.92301
lowerback 14.5544 -1.42582 4.96197
upperback -0.822271 -0.604121 4.71621
thorax -9.10259 -0.400911 2.41634
lowerneck 0.830938 -5.30887 0.395317
upperneck -2.44774 -7.33998 -8.18916
head -1.26457 -3.58755 -2.55203
rclavicle -2.5842e-015 -5.08889e-014
rhumerus 28.9864 12.6493 -58.4251
rradius 131.931
rwrist 0.758007
rhand -36.2052 -40.8231
rfingers 7.12502
rthumb -9.3078 -70.5976
lclavicle -2.5842e-015 -5.08889e-014
lhumerus -53.1255 -22.5759 106.501
lradius 111.711
lwrist -4.4529
lhand -12.4927 -35.6365
lfingers 7.12502
lthumb 13.5822 -6.09955
rfemur 0 0 0
rtibia 0
rfoot 0 0
rtoes 0
lfemur -6.57376 0.386466 -14.7675
ltibia 24.0769
lfoot -22.4079 12.7563
ltoes -56.3415
681
root -0.825379 18.7836 6.02618 2.67279 -4.92553 -1.9526
lowerback 14.4373 -1.4731 4.97334
upperback -0.715677 -0.678171 4.77036
thorax -8.91809 -0.43409 2.47672
lowerneck 0.813013 -5.29547 0.314985
upperneck -2.56299 -7.32783 -8.07079
head -1.2886 -3.57948 -2.49827
rclavicle 1.94809e-014 -4.77083e-015
rhumerus 29.132 12.5451 -58.355
rradius 131.91
rwrist 0.766388
rhand -36.3284 -40.3643
rfingers 7.12502
rthumb -9.4267 -70.1335
lclavicle 1.94809e-014 -4.77083e-015
lhumerus -52.9575 -22.5728 106.492
lradius 111.701
lwrist -4.48155
lhand -12.4915 -35.5153
lfingers 7.12502
lthumb 13.5833 -5.97846
rfemur 0 0 0
rtibia 0
rfoot 0 0
rtoes 0
lfemur -6.51936 0.422708 -14.7477
ltibia 24.0684
lfoot -22.5537 12.8119
ltoes -55.605
682
root -0.825722 18.7843 6.02992 2.71691 -5.12408 -1.98392
lowerback 14.0804 -1.51002 4.88487
upperback -0.457106 -0.783863 4.86334
thorax -8.42869 -0.474963 2.62649
lowerneck 0.674821 -5.26179 0.371463
upperneck -2.74727 -7.29431 -8.08962
head -1.32528 -3.56153 -2.51734
rclavicle -1.19271e-014 1.90833e-014
rhumerus 29.5801 12.3291 -58.2289
rradius 131.798
rwrist 0.881223
rhand -35.9245 -40.149
rfingers 7.12502
rthumb -9.03693 -69.9354
lclavicle -1.19271e-014 1.90833e-014
lhumerus -52.4841 -22.6148 106.378
lradius 111.636
lwrist -4.57542
lhand -12.5447 -35.5272
lfingers 7.12502
lthumb 13.532 -5.98688
rfemur 0 0 0
rtibia 0
rfoot 0 0
rtoes 0
lfemur -6.49896 0.473372 -14.7228
ltibia 24.0628
lfoot -22.6891 12.8463
ltoes -55.2198
683
root -0.826236 18.7852 6.03193 2.77409 -5.3022 -1.9938
lowerback 14.094 -1.55421 4.93686
upperback -0.464759 -0.832325 4.86465
thorax -8.44537 -0.500797 2.60989
lowerneck 0.603018 -5.28243 0.413373
upperneck -2.65791 -7.31762 -8.19173
head -1.29197 -3.57679 -2.56092
rclavicle -7.15625e-015 -3.81667e-014
rhumerus 29.5456 12.32 -58.1867
rradius 131.802
rwrist 0.930012
rhand -35.1776 -40.06
rfingers 7.12502
rthumb -8.31616 -69.8763
lclavicle -7.15625e-015 -3.81667e-014
lhumerus -52.4569 -22.6525 106.37
lradius 111.608
lwrist -4.58504
lhand -12.4947 -35.5832
lfingers 7.12502
lthumb 13.5802 -6.04607
rfemur 0 0 0
rtibia 0
rfoot 0 0
rtoes 0
lfemur -6.52651 0.659596 -14.7203
ltibia 24.0503
lfoot -22.6204 12.9485
ltoes -55.5834
